# xmcd
#
# Track frame offsets: 
#        150
#        64138
#        99564
#        133851
#        212582
#
# Disc length: 4220 seconds
#
# Revision: 1
# Processed by: cddbd v1.5.2PL0 Copyright (c) Steve Scherf et al.
# Submitted via: ExactAudioCopy v0.99pb4
#
DISCID=46107a05
DTITLE=Elvia Melodey - Journey To Wholeness
DYEAR=2002
DGENRE=Meditative
TTITLE0=Chakra Alignment
TTITLE1=Colloquium
TTITLE2=Gaia Guardians
TTITLE3=Higher Joys
TTITLE4=Journey To Wholeness
EXTD=
EXTT0=
EXTT1=
EXTT2=
EXTT3=
EXTT4=
PLAYORDER=
